<svg width="26" height="25" viewBox="0 0 26 25" fill="none" xmlns="http://www.w3.org/2000/svg">
<g clip-path="url(#clip0)">
<path d="M12.7536 9.60046C11.1042 9.60046 9.76361 10.9367 9.76361 12.5904C9.76361 14.2397 11.0998 15.5804 12.7536 15.5804C14.4073 15.5804 15.7435 14.2397 15.7435 12.5904C15.7435 10.9367 14.4073 9.60046 12.7536 9.60046Z" fill="#444242"/>
<path d="M19.7477 7.29848C19.5846 6.87953 19.3905 6.57965 19.0774 6.26655C18.7643 5.95344 18.4644 5.7594 18.0455 5.59623C17.728 5.47276 17.2561 5.32723 16.3785 5.28754C15.4348 5.24344 15.1482 5.23462 12.7536 5.23462C10.359 5.23462 10.0767 5.24344 9.12858 5.28754C8.25541 5.32723 7.77914 5.47276 7.46162 5.59623C7.04268 5.7594 6.7428 5.95344 6.42969 6.26655C6.11659 6.57965 5.92255 6.87953 5.75938 7.29848C5.6359 7.61599 5.49038 8.08786 5.45069 8.96544C5.40659 9.90916 5.39777 10.1958 5.39777 12.5904C5.39777 14.985 5.40659 15.2673 5.45069 16.2154C5.49038 17.0886 5.6359 17.5648 5.75938 17.8824C5.92255 18.3013 6.11659 18.6012 6.42969 18.9143C6.7428 19.2274 7.04268 19.4214 7.46162 19.5846C7.77914 19.7081 8.251 19.8536 9.12858 19.8933C10.0723 19.9374 10.359 19.9462 12.7536 19.9462C15.1482 19.9462 15.4304 19.9374 16.3785 19.8933C17.2517 19.8536 17.728 19.7081 18.0455 19.5846C18.4644 19.4214 18.7643 19.2274 19.0774 18.9143C19.3905 18.6012 19.5846 18.3013 19.7477 17.8824C19.8712 17.5648 20.0167 17.093 20.0564 16.2154C20.1005 15.2717 20.1094 14.985 20.1094 12.5904C20.1094 10.1958 20.1005 9.91358 20.0564 8.96544C20.0123 8.08786 19.8668 7.61599 19.7477 7.29848ZM12.7536 17.1944C10.209 17.1944 8.14957 15.1305 8.14957 12.5904C8.14957 10.0503 10.2134 7.98202 12.7536 7.98202C15.2981 7.98202 17.3575 10.0459 17.3575 12.586C17.3575 15.1261 15.2981 17.1944 12.7536 17.1944ZM17.5428 8.87724C16.9474 8.87724 16.4667 8.39655 16.4667 7.80121C16.4667 7.20587 16.9474 6.72518 17.5428 6.72518C18.1381 6.72518 18.6188 7.20587 18.6188 7.80121C18.6188 8.39655 18.1381 8.87724 17.5428 8.87724Z" fill="#444242"/>
<path d="M20.7356 0H4.27763C1.91831 0 0.00439453 1.91392 0.00439453 4.27324V20.7268C0.00439453 23.0861 1.91831 25 4.27763 25H20.7356C23.0949 25 25.0088 23.0861 25.0088 20.7268V4.27324C25.0044 1.91392 23.0949 0 20.7356 0ZM21.6705 16.2859C21.6264 17.2385 21.4764 17.8912 21.2515 18.4645C21.0222 19.0554 20.7135 19.5537 20.2152 20.052C19.7169 20.5504 19.2185 20.8591 18.6276 21.0884C18.0587 21.3089 17.4061 21.4632 16.4491 21.5073C15.4921 21.5514 15.1878 21.5602 12.7536 21.5602C10.3193 21.5602 10.0106 21.5514 9.05802 21.5073C8.10547 21.4632 7.4528 21.3133 6.8795 21.0884C6.28857 20.8591 5.79025 20.5504 5.29192 20.052C4.7936 19.5537 4.4849 19.0554 4.25559 18.4645C4.03509 17.8956 3.88074 17.2429 3.83664 16.2859C3.79254 15.329 3.78372 15.0247 3.78372 12.5904C3.78372 10.1561 3.79254 9.84742 3.83664 8.89487C3.88074 7.94232 4.03068 7.28965 4.25559 6.71635C4.4849 6.12542 4.78919 5.62709 5.29192 5.12877C5.79025 4.63045 6.28857 4.32175 6.8795 4.09243C7.44839 3.87193 8.10106 3.71759 9.05802 3.67349C10.015 3.62939 10.3193 3.62057 12.7536 3.62057C15.1878 3.62057 15.4965 3.62939 16.4491 3.67349C17.4016 3.71759 18.0543 3.86753 18.6276 4.09243C19.2185 4.32175 19.7169 4.63045 20.2152 5.12877C20.7135 5.62709 21.0222 6.12542 21.2515 6.71635C21.472 7.28524 21.6264 7.93791 21.6705 8.89487C21.7146 9.85183 21.7234 10.1561 21.7234 12.5904C21.7234 15.0247 21.7102 15.329 21.6705 16.2859Z" fill="#444242"/>
</g>
<defs>
<clipPath id="clip0">
<rect width="25" height="25" fill="white" transform="translate(0.00439453)"/>
</clipPath>
</defs>
</svg>
