<svg width="26" height="25" viewBox="0 0 26 25" fill="none" xmlns="http://www.w3.org/2000/svg">
<g id="Frame" clip-path="url(#clip0)">
<g id="Group">
<path id="Vector" d="M12.6697 4.92139C8.83309 4.92139 5.66675 7.83636 5.30072 11.554C5.27426 11.7877 5.26544 12.0258 5.26544 12.2684C5.26544 13.878 5.79023 15.3641 6.67663 16.5769L5.75495 19.3066L8.59936 18.3982C9.77241 19.1699 11.166 19.6153 12.6742 19.6153C16.7578 19.6153 20.0785 16.3211 20.0785 12.2684C20.0785 12.0743 20.0696 11.8847 20.052 11.6951C19.7521 7.91133 16.5549 4.92139 12.6697 4.92139ZM16.9871 15.298C16.8107 15.8007 15.9287 16.2814 15.5318 16.3167C15.1349 16.352 15.1349 16.6386 12.9388 15.7831C10.747 14.9232 9.36228 12.6873 9.25204 12.5462C9.16825 12.4404 8.70079 11.8141 8.48029 11.06C8.41414 10.8263 8.37005 10.5794 8.37005 10.328C8.37005 9.27401 8.9257 8.75363 9.12415 8.53755C9.32259 8.32146 9.55632 8.26854 9.70185 8.26854C9.84738 8.26854 9.9885 8.29059 10.112 8.29059C10.2399 8.29059 10.4207 8.21562 10.5971 8.64338C10.7779 9.07115 11.2101 10.1295 11.263 10.2354C11.3159 10.3412 11.3556 10.4647 11.2806 10.6102C11.2321 10.7116 11.1924 10.7866 11.1439 10.866C11.1174 10.8969 11.0954 10.9321 11.0645 10.9674C10.9543 11.0909 10.8396 11.2453 10.7382 11.3423C10.6323 11.4481 10.5177 11.5628 10.6412 11.7789C10.7646 11.9949 11.2012 12.6961 11.8407 13.2606C12.6653 13.9927 13.3621 14.2176 13.5782 14.3234C13.7987 14.4292 13.9222 14.416 14.0501 14.2705C14.1735 14.1294 14.5881 13.6487 14.7336 13.4326C14.8791 13.2165 15.0202 13.2518 15.2187 13.3267C15.4171 13.3973 16.4755 13.9177 16.696 14.0235C16.9121 14.1294 17.0532 14.1823 17.1062 14.2705C17.1723 14.3719 17.1723 14.7997 16.9871 15.298Z" fill="white"/>
<path id="Vector_2" d="M20.7356 0H4.27763C1.91831 0 0.00439453 1.91392 0.00439453 4.27324V20.7268C0.00439453 23.0861 1.91831 25 4.27763 25H20.7356C23.0949 25 25.0088 23.0861 25.0088 20.7268V4.27324C25.0044 1.91392 23.0949 0 20.7356 0ZM12.6698 21.009C11.1263 21.009 9.67541 20.6121 8.41417 19.9197L3.53676 21.472L5.12434 16.7843C4.32614 15.4657 3.8631 13.9222 3.8631 12.2685C3.8631 12.1406 3.86751 12.0127 3.87192 11.8848C4.07478 7.23673 7.93348 3.52796 12.6698 3.52796C17.459 3.52796 21.353 7.32051 21.472 12.0436C21.4764 12.1185 21.4764 12.1935 21.4764 12.2641C21.4764 17.0974 17.5339 21.009 12.6698 21.009Z" fill="white"/>
</g>
</g>
<defs>
<clipPath id="clip0">
<rect width="25" height="25" fill="white" transform="translate(0.00439453)"/>
</clipPath>
</defs>
</svg>
