<svg width="25" height="25" viewBox="0 0 25 25" fill="none" xmlns="http://www.w3.org/2000/svg">
<g id="Frame" clip-path="url(#clip0)">
<path id="Vector" d="M20.7312 0H4.27324C1.91392 0 0 1.91392 0 4.27324V20.7268C0 23.0861 1.91392 25 4.27324 25H20.7312C23.0905 25 25.0044 23.0861 25.0044 20.7268V4.27324C25 1.91392 23.0905 0 20.7312 0ZM16.8151 6.42971C16.8151 6.42971 15.3554 6.42971 14.7777 6.42971C14.0589 6.42971 13.909 6.72517 13.909 7.46604C13.909 8.08344 13.909 9.26089 13.909 9.26089H16.8151L16.5373 12.4184H13.9134V21.8425H10.1429V12.4625H8.18486V9.26971H10.1429C10.1429 9.26971 10.1429 8.81108 10.1429 6.75604C10.1429 4.39672 11.4041 3.16193 14.2044 3.16193C14.6631 3.16193 16.8107 3.16193 16.8107 3.16193V6.42971H16.8151Z" fill="white"/>
</g>
<defs>
<clipPath id="clip0">
<rect width="25" height="25" fill="white"/>
</clipPath>
</defs>
</svg>
