<svg width="26" height="25" viewBox="0 0 26 25" fill="none" xmlns="http://www.w3.org/2000/svg">
<g id="Group">
<path id="Vector" d="M20.7356 0H4.27763C1.91831 0 0.00439453 1.91392 0.00439453 4.27324V20.7268C0.00439453 23.0861 1.91831 25 4.27763 25H20.7356C23.0949 25 25.0088 23.0861 25.0088 20.7268V4.27324C25.0044 1.91392 23.0949 0 20.7356 0ZM20.3475 10.8132C20.3475 11.1043 20.1137 11.338 19.8227 11.338C18.6188 11.338 17.4546 11.0469 16.4094 10.4913V15.598C16.4094 18.8349 13.7767 21.4676 10.5398 21.4676C7.30286 21.4676 4.67012 18.8349 4.67012 15.598C4.67012 12.3611 7.30286 9.72835 10.5398 9.72835C10.8308 9.72835 11.0645 9.96207 11.0645 10.2531V13.0667C11.0645 13.3577 10.8308 13.5915 10.5398 13.5915C9.43286 13.5915 8.53323 14.4911 8.53323 15.598C8.53323 16.7049 9.43286 17.6045 10.5398 17.6045C11.6467 17.6045 12.5463 16.7049 12.5463 15.598V4.06156C12.5463 3.77051 12.78 3.53678 13.0711 3.53678H15.8802C16.1713 3.53678 16.405 3.77051 16.405 4.06156C16.405 5.94461 17.9352 7.47486 19.8183 7.47486C20.1093 7.47486 20.3431 7.70859 20.3431 7.99965V10.8132H20.3475Z" fill="white"/>
<path id="Vector_2" d="M15.3863 4.58643H13.5915V15.5977C13.5915 17.2823 12.22 18.6537 10.5354 18.6537C8.85081 18.6537 7.47931 17.2823 7.47931 15.5977C7.47931 14.0896 8.57298 12.8372 10.0106 12.5858V10.8043C7.59838 11.0689 5.71533 13.115 5.71533 15.5977C5.71533 18.2569 7.87621 20.4177 10.5354 20.4177C13.1946 20.4177 15.3555 18.2569 15.3555 15.5977V9.54306C15.3555 9.34462 15.4657 9.16382 15.6421 9.07562C15.8185 8.98742 16.0302 9.00065 16.189 9.11531C17.1106 9.77678 18.1734 10.1693 19.298 10.2619V8.48911C17.2518 8.25098 15.6289 6.62817 15.3863 4.58643Z" fill="white"/>
</g>
</svg>
