<svg width="26" height="25" viewBox="0 0 26 25" fill="none" xmlns="http://www.w3.org/2000/svg">
<g id="Frame" clip-path="url(#clip0)">
<g id="XMLID 1">
<g id="XMLID 2">
<path id="Vector" d="M20.7356 0H4.27763C1.91831 0 0.00439453 1.91392 0.00439453 4.27324V20.7268C0.00439453 23.0861 1.91831 25 4.27763 25H20.7356C23.0949 25 25.0088 23.0861 25.0088 20.7268V4.27324C25.0044 1.91392 23.0949 0 20.7356 0ZM20.5239 16.5549C20.3298 17.2782 19.7654 17.8515 19.0421 18.0455C17.7368 18.3983 12.5022 18.3983 12.5022 18.3983C12.5022 18.3983 7.26758 18.3983 5.96224 18.0455C5.24341 17.8515 4.67453 17.2826 4.48049 16.5549C4.13211 15.2408 4.13211 12.4978 4.13211 12.4978C4.13211 12.4978 4.13211 9.75481 4.48049 8.44064C4.67453 7.71741 5.239 7.14412 5.96224 6.95008C7.26758 6.59728 12.5022 6.59728 12.5022 6.59728C12.5022 6.59728 17.7368 6.59728 19.0421 6.95008C19.761 7.14412 20.3298 7.713 20.5239 8.44064C20.8723 9.75481 20.8723 12.4978 20.8723 12.4978C20.8723 12.4978 20.8723 15.2408 20.5239 16.5549Z" fill="white"/>
<path id="XMLID 3" d="M10.7911 14.9893V10.0105L15.1702 12.5021L10.7911 14.9893Z" fill="white"/>
</g>
</g>
</g>
<defs>
<clipPath id="clip0">
<rect width="25" height="25" fill="white" transform="translate(0.00439453)"/>
</clipPath>
</defs>
</svg>
