<svg width="26" height="25" viewBox="0 0 26 25" fill="none" xmlns="http://www.w3.org/2000/svg">
<path id="Vector" d="M20.7312 0H4.27324C1.91392 0 0 1.91392 0 4.27324V20.7268C0 23.0861 1.91392 25 4.27324 25H20.7312C23.0905 25 25.0044 23.0861 25.0044 20.7268V4.27324C25 1.91392 23.0905 0 20.7312 0ZM19.7478 8.78462C19.9859 14.0457 16.061 19.9109 9.11536 19.9109C7.003 19.9109 5.03616 19.2935 3.38243 18.2307C5.36691 18.4645 7.34697 17.9132 8.92133 16.6828C7.28524 16.652 5.90492 15.5715 5.42865 14.0854C6.01517 14.1956 6.58846 14.1648 7.11766 14.0236C5.3184 13.662 4.0792 12.0436 4.11889 10.3105C4.62163 10.5883 5.19933 10.7603 5.81231 10.7779C4.14535 9.65779 3.67349 7.45722 4.65691 5.77703C6.50026 8.03934 9.25648 9.5299 12.3655 9.68425C11.8187 7.34256 13.5959 5.09349 16.0081 5.09349C17.0841 5.09349 18.0543 5.54772 18.7379 6.27536C19.589 6.10778 20.3916 5.79467 21.1104 5.36691C20.8326 6.24008 20.2373 6.97213 19.4655 7.43517C20.2196 7.34697 20.9428 7.14412 21.6132 6.84865C21.1148 7.59834 20.4798 8.25542 19.7478 8.78462Z" fill="white"/>
</svg>
