<svg width="26" height="25" viewBox="0 0 26 25" fill="none" xmlns="http://www.w3.org/2000/svg">
<g clip-path="url(#clip0)">
<path d="M12.6698 4.92151C8.83312 4.92151 5.66678 7.83649 5.30075 11.5541C5.27429 11.7878 5.26547 12.0259 5.26547 12.2685C5.26547 13.8781 5.79026 15.3643 6.67666 16.577L5.75498 19.3068L8.59939 18.3983C9.77244 19.1701 11.166 19.6155 12.6742 19.6155C16.7578 19.6155 20.0785 16.3212 20.0785 12.2685C20.0785 12.0744 20.0697 11.8848 20.052 11.6952C19.7522 7.91145 16.5549 4.92151 12.6698 4.92151ZM16.9871 15.2981C16.8107 15.8009 15.9287 16.2815 15.5318 16.3168C15.1349 16.3521 15.1349 16.6387 12.9388 15.7832C10.747 14.9233 9.36231 12.6874 9.25207 12.5463C9.16828 12.4405 8.70082 11.8143 8.48032 11.0602C8.41418 10.8264 8.37008 10.5795 8.37008 10.3281C8.37008 9.27413 8.92573 8.75375 9.12418 8.53767C9.32263 8.32158 9.55635 8.26866 9.70188 8.26866C9.84741 8.26866 9.98853 8.29071 10.112 8.29071C10.2399 8.29071 10.4207 8.21574 10.5971 8.64351C10.7779 9.07127 11.2101 10.1297 11.263 10.2355C11.3159 10.3413 11.3556 10.4648 11.2806 10.6103C11.2321 10.7118 11.1924 10.7867 11.1439 10.8661C11.1175 10.897 11.0954 10.9323 11.0646 10.9675C10.9543 11.091 10.8396 11.2454 10.7382 11.3424C10.6324 11.4482 10.5177 11.5629 10.6412 11.779C10.7647 11.9951 11.2013 12.6962 11.8407 13.2607C12.6654 13.9928 13.3621 14.2177 13.5782 14.3235C13.7987 14.4294 13.9222 14.4161 14.0501 14.2706C14.1736 14.1295 14.5881 13.6488 14.7336 13.4327C14.8792 13.2166 15.0203 13.2519 15.2187 13.3269C15.4172 13.3974 16.4756 13.9178 16.6961 14.0236C16.9121 14.1295 17.0533 14.1824 17.1062 14.2706C17.1723 14.372 17.1723 14.7998 16.9871 15.2981Z" fill="#444242"/>
<path d="M20.7356 0H4.27763C1.91831 0 0.00439453 1.91392 0.00439453 4.27324V20.7268C0.00439453 23.0861 1.91831 25 4.27763 25H20.7356C23.0949 25 25.0088 23.0861 25.0088 20.7268V4.27324C25.0044 1.91392 23.0949 0 20.7356 0ZM12.6698 21.009C11.1263 21.009 9.67541 20.6121 8.41417 19.9197L3.53676 21.472L5.12434 16.7843C4.32614 15.4657 3.8631 13.9222 3.8631 12.2685C3.8631 12.1406 3.86751 12.0127 3.87192 11.8848C4.07478 7.23673 7.93348 3.52796 12.6698 3.52796C17.459 3.52796 21.353 7.32051 21.472 12.0436C21.4764 12.1185 21.4764 12.1935 21.4764 12.2641C21.4764 17.0974 17.5339 21.009 12.6698 21.009Z" fill="#444242"/>
</g>
<defs>
<clipPath id="clip0">
<rect width="25" height="25" fill="white" transform="translate(0.00439453)"/>
</clipPath>
</defs>
</svg>
