<svg width="26" height="25" viewBox="0 0 26 25" fill="none" xmlns="http://www.w3.org/2000/svg">
<g clip-path="url(#clip0)">
<path d="M20.7356 0H4.27763C1.91831 0 0.00439453 1.91392 0.00439453 4.27324V20.7268C0.00439453 23.0861 1.91831 25 4.27763 25H20.7356C23.0949 25 25.0088 23.0861 25.0088 20.7268V4.27324C25.0044 1.91392 23.0949 0 20.7356 0ZM8.24218 20.2902H5.02733V9.90475H8.24218V20.2902ZM6.61932 8.54207C5.56975 8.54207 4.71863 7.68213 4.71863 6.62374C4.71863 5.56536 5.56975 4.70542 6.61932 4.70542C7.66889 4.70542 8.52001 5.56536 8.52001 6.62374C8.52001 7.68213 7.66889 8.54207 6.61932 8.54207ZM20.2946 20.2902H17.0929C17.0929 20.2902 17.0929 16.3344 17.0929 14.8351C17.0929 13.3401 16.5241 12.5066 15.3422 12.5066C14.0545 12.5066 13.3842 13.3754 13.3842 14.8351C13.3842 16.4359 13.3842 20.2902 13.3842 20.2902H10.3016V9.90475H13.3842V11.3027C13.3842 11.3027 14.3103 9.58723 16.5152 9.58723C18.7158 9.58723 20.2946 10.9323 20.2946 13.7149C20.2946 16.4976 20.2946 20.2902 20.2946 20.2902Z" fill="#444242"/>
</g>
<defs>
<clipPath id="clip0">
<rect width="25" height="25" fill="white" transform="translate(0.00439453)"/>
</clipPath>
</defs>
</svg>
