<svg width="22" height="15" viewBox="0 0 22 15" fill="none" xmlns="http://www.w3.org/2000/svg">
<path d="M20.0664 0H1.93359C0.865391 0 0 0.844167 0 1.875V13.125C0 14.1621 0.871406 15 1.93359 15H20.0664C21.1256 15 22 14.1654 22 13.125V1.875C22 0.84625 21.138 0 20.0664 0ZM19.7957 1.25C19.4008 1.63125 12.6023 8.18875 12.3673 8.41542C12.002 8.76958 11.5165 8.96458 11 8.96458C10.4835 8.96458 9.99797 8.76958 9.63144 8.41417C9.47375 8.26167 2.75 1.77625 2.2043 1.25H19.7957ZM1.28906 12.8704V2.13042L6.85953 7.50333L1.28906 12.8704ZM2.20516 13.75L7.77348 8.385L8.72137 9.29917C9.33023 9.88958 10.1393 10.2146 11 10.2146C11.8607 10.2146 12.6702 9.88958 13.2778 9.30042L14.227 8.385L19.7948 13.75H2.20516ZM20.7109 12.8704L15.1405 7.50333L20.7109 2.13042V12.8704Z" fill="#FECE17"/>
</svg>
