<svg width="19" height="33" viewBox="0 0 19 33" fill="none" xmlns="http://www.w3.org/2000/svg">
<path d="M12.4024 2.75H9.23576C8.79849 2.75 8.44409 3.11932 8.44409 3.575C8.44409 4.03068 8.79849 4.4 9.23576 4.4H12.4024C12.8397 4.4 13.1941 4.03068 13.1941 3.575C13.1941 3.11932 12.8403 2.75 12.4024 2.75Z" fill="#FECE17"/>
<path d="M15.8333 0H3.16667C1.42067 0 0 1.48049 0 3.3V29.7C0 31.5195 1.42067 33 3.16667 33H15.8333C17.5793 33 19 31.5195 19 29.7V3.3C19 1.48049 17.5793 0 15.8333 0ZM17.4167 29.7C17.4167 30.6114 16.7079 31.35 15.8333 31.35H3.16667C2.29212 31.35 1.58333 30.6114 1.58333 29.7V3.3C1.58333 2.38863 2.29212 1.65 3.16667 1.65H15.8333C16.7079 1.65 17.4167 2.38863 17.4167 3.3V29.7Z" fill="#FECE17"/>
<path d="M9.49984 30.2492C10.3743 30.2492 11.0832 29.5105 11.0832 28.5992C11.0832 27.6879 10.3743 26.9492 9.49984 26.9492C8.62539 26.9492 7.9165 27.6879 7.9165 28.5992C7.9165 29.5105 8.62539 30.2492 9.49984 30.2492Z" fill="#FECE17"/>
<path d="M6.59757 4.4C7.0348 4.4 7.38924 4.03063 7.38924 3.575C7.38924 3.11937 7.0348 2.75 6.59757 2.75C6.16035 2.75 5.80591 3.11937 5.80591 3.575C5.80591 4.03063 6.16035 4.4 6.59757 4.4Z" fill="#FECE17"/>
</svg>
